<svg viewBox="0 0 160 19" fill="none" xmlns="http://www.w3.org/2000/svg">
<path fill-rule="evenodd" clip-rule="evenodd" d="M3.68578 3.7822H23.004V0.0002H5.41998C2.63138 0.004 0.108983 2.4466 0.0349833 5.2734C-0.0400167 8.2404 -0.0422167 10.844 0.0349833 13.56C0.0942609 14.9919 0.700921 16.3464 1.72978 17.344C2.74258 18.3447 4.10938 18.9053 5.53318 18.904C6.94898 18.8994 23.018 18.904 23.018 18.904V15.122H3.69498V11.342H23.018V7.562H3.68578V3.7822ZM43.316 7.556C41.987 7.556 41.236 7.5578 40.6082 7.5592C40.2044 7.5592 39.8516 7.561 39.4282 7.561H35.4742V7.5628L29.6342 7.566V3.786L47.7798 3.7808V0L31.3836 0.0052C30.6564 0.00885975 29.9373 0.15871 29.2692 0.445841C28.6011 0.732973 27.9975 1.15152 27.4944 1.6766C26.4695 2.76658 25.9089 4.2126 25.9313 5.7086C25.9537 7.2046 26.5573 8.63319 27.6144 9.692C28.1345 10.2162 28.7532 10.6322 29.4349 10.9162C30.1166 11.2001 30.8477 11.3463 31.5862 11.3464C32.915 11.3464 33.6662 11.3446 34.294 11.3432C34.6978 11.3432 35.0506 11.3414 35.474 11.3414H39.428V11.3394L45.268 11.3362V15.1162L26.9902 15.1214V18.9014L43.5186 18.896C44.2458 18.8924 44.9649 18.7426 45.633 18.4555C46.3012 18.1684 46.9048 17.7498 47.408 17.2248C48.4328 16.1347 48.9932 14.6886 48.9706 13.1926C48.948 11.6966 48.3442 10.2681 47.287 9.2094C46.7669 8.68549 46.1482 8.26967 45.4667 7.9859C44.7852 7.70213 44.0542 7.55603 43.316 7.556ZM51.487 3.7806H61.02V18.9696H64.9924V3.7804H74.526V0H51.486V3.78L51.487 3.7806ZM106.262 5.6578H97.7022C97.3383 5.68875 96.9843 5.79211 96.661 5.96181C96.3377 6.13151 96.0515 6.36413 95.8194 6.646C95.3575 7.21952 95.1149 7.93871 95.135 8.6748V18.9696H97.73V15.024H106.242V18.9696H108.829V8.6746C108.849 7.93888 108.607 7.21999 108.147 6.6458C107.914 6.36406 107.628 6.13155 107.304 5.96187C106.98 5.7922 106.626 5.68895 106.262 5.6578ZM106.242 12.3626H97.73V8.3196H106.242V12.3624L106.242 12.3626ZM85.5822 13.6268H89.606V16.2824H80.7356V8.3132H91.4094V5.6576H81.641C79.832 5.6594 78.1946 7.3464 78.1472 9.2992V15.214C78.1812 16.2008 78.572 17.1417 79.2472 17.8622C79.5636 18.2001 79.9457 18.4698 80.3701 18.6548C80.7944 18.8397 81.2521 18.9361 81.715 18.938V18.9398H89.8242V18.9362C91.1442 18.865 92.1936 17.6674 92.1936 16.2018V10.9708H85.5828V13.6266L85.5822 13.6268ZM132.908 8.3132H143.254V5.6576H134.056C132.141 5.6594 130.409 7.3464 130.358 9.2992C130.307 11.252 130.305 13.2424 130.358 15.214C130.398 16.2121 130.814 17.1581 131.523 17.8622C132.217 18.5523 133.156 18.9392 134.135 18.938V18.9362H143.256V16.2804H132.908V13.624H143.256V10.969H132.908V8.3132ZM124.906 5.6576C124.492 5.65923 124.086 5.76513 123.724 5.96551C123.362 6.1659 123.057 6.45429 122.836 6.804C122.794 6.8814 122.748 6.9606 122.702 7.0418C121.566 9.0554 119.557 12.556 119.557 12.556L116.495 7.1748L116.22 6.6918C115.995 6.37345 115.697 6.11351 115.351 5.93362C115.005 5.75373 114.621 5.65909 114.231 5.6576C113.566 5.66645 112.931 5.93922 112.467 6.41591C112.003 6.89261 111.747 7.5342 111.755 8.1996V18.9658H114.36V8.8602L115.286 10.4944L117.733 14.8086C117.9 15.1358 118.136 15.4234 118.424 15.652C118.747 15.874 119.124 16.0045 119.516 16.0296H119.637C120.017 16.0066 120.383 15.8756 120.692 15.652C120.971 15.4187 121.2 15.1311 121.365 14.8066L123.846 10.4926L124.774 8.8792V18.9528H127.382V8.1996C127.387 7.87006 127.326 7.5429 127.204 7.23679C127.082 6.93069 126.901 6.65164 126.671 6.41559C126.441 6.17953 126.166 5.9911 125.864 5.86104C125.561 5.73098 125.235 5.66185 124.906 5.6576ZM158.852 12.1198C158.5 11.7551 158.078 11.4652 157.612 11.2674C157.145 11.0697 156.644 10.9682 156.137 10.969H148.452V8.3132H159.412V5.6576H149.378C149.312 5.6576 149.244 5.6576 149.178 5.6614C148.205 5.8039 147.325 6.3186 146.724 7.097C146.107 7.9118 145.806 8.9223 145.876 9.942C145.939 10.9515 146.371 11.9026 147.09 12.6146C147.799 13.2842 148.744 13.6478 149.72 13.6266H157.463V16.2824H146.472V18.938H156.25C156.756 18.9283 157.255 18.8164 157.716 18.6089C158.178 18.4015 158.593 18.1029 158.936 17.731C159.643 16.9962 160.03 16.0109 160.013 14.991C160.001 13.9219 159.586 12.8965 158.852 12.1198Z" fill="#B2B2B2"/>
</svg>
